:SAMPLES-PER-SECOND 30
:FULLY-SPECIFIED
:DEGREES
895
root  14.6354 40.6463 10.1103 108.194 89.0858 110.743
RightUpLeg  2.23307 -11.4181 -11.5555
RightLeg  5.72609 -9.07327 2.92049
RightFoot  -0.371308 -0.331755 3.49072
RightToes  0.000481921 0.542163 -0.142578
Spine  -2.23228 -1.01243 -2.71087
Spine1  14.2957 -2.1045 3.80098
HEad  16.3938 2.9175 1.81814
LeftShoulder1  9.05832 -13.1491 -47.4745
LeftArm  -16.6487 9.66802 -20.9325
LeftForeArm  162.81 -51.4388 -166.836
LeftHand  -0.25398 0.0180481 5.50724
RightShoulder  5.25882 8.80544 36.7221
RightArm  3.94891 -15.3783 35.6855
RightForeArm  147.692 55.8206 163.478
RightHand  -1.31272 2.41948 -19.6045
LeftUpLeg  3.53748 8.02508 9.67448
LeftLeg  0.358279 13.8225 -3.45804
LeftFoot  2.99397 0.789835 -6.41542
LeftToes  1.06245e-005 4.65869e-005 -8.65517e-006
896
root  14.6502 40.6457 10.1024 112.261 89.0646 114.809
RightUpLeg  2.26467 -11.4307 -11.5728
RightLeg  5.74465 -9.11546 2.91827
RightFoot  -0.392984 -0.332403 3.50485
RightToes  0.000481921 0.542163 -0.142578
Spine  -2.06665 -0.893627 -2.73926
Spine1  14.0837 -2.00851 3.91407
HEad  16.5982 2.572 1.78983
LeftShoulder1  9.1666 -13.1101 -48.1641
LeftArm  -15.8661 14.0287 -22.1339
LeftForeArm  164.599 -49.9018 -167.619
LeftHand  -0.25398 0.0180481 5.50724
RightShoulder  5.23718 8.72055 36.8383
RightArm  4.1558 -15.2631 35.5324
RightForeArm  148.146 55.7491 163.554
RightHand  -1.31749 2.53664 -19.3941
LeftUpLeg  3.54115 8.02954 9.67057
LeftLeg  0.373594 13.7499 -3.45921
LeftFoot  2.94537 0.786078 -6.38412
LeftToes  1.06245e-005 4.65869e-005 -8.65517e-006
897
root  14.6653 40.6451 10.0999 119.291 88.9784 121.833
RightUpLeg  2.32126 -11.4787 -11.6286
RightLeg  5.75268 -9.19916 2.94122
RightFoot  -0.437197 -0.333426 3.52515
RightToes  0.000481921 0.542163 -0.142578
Spine  -2.01018 -0.819701 -2.86982
Spine1  14.0023 -1.98198 4.10817
HEad  16.6135 2.40947 1.63213
LeftShoulder1  9.19844 -13.015 -48.6125
LeftArm  -15.2537 17.5274 -23.0787
LeftForeArm  166.989 -48.5102 -168.342
LeftHand  -0.25398 0.0180481 5.50724
RightShoulder  5.18625 8.56414 36.9675
RightArm  4.31807 -14.9583 35.359
RightForeArm  148.764 55.7384 163.609
RightHand  -1.26062 2.4477 -18.7816
LeftUpLeg  3.52812 7.99857 9.63341
LeftLeg  0.370284 13.6406 -3.44477
LeftFoot  2.92405 0.785891 -6.39515
LeftToes  1.06245e-005 4.65869e-005 -8.65517e-006
898
root  14.6788 40.6448 10.1086 130.017 88.8 132.536
RightUpLeg  2.39262 -11.504 -11.6556
RightLeg  5.74917 -9.43539 2.94373
RightFoot  -0.495049 -0.334248 3.54267
RightToes  0.000481921 0.542163 -0.142578
Spine  -1.97188 -0.72644 -3.02665
Spine1  13.8781 -1.96064 4.40255
HEad  16.6276 2.25531 1.45854
LeftShoulder1  9.20778 -12.982 -48.7601
LeftArm  -14.5327 20.0911 -23.6737
LeftForeArm  169.084 -47.5756 -168.84
LeftHand  -0.25398 0.0180481 5.50724
RightShoulder  5.11782 8.34607 37.1739
RightArm  4.35803 -14.8199 35.0927
RightForeArm  148.836 55.6283 163.677
RightHand  -1.19848 2.16231 -18.5272
LeftUpLeg  3.45343 7.96233 9.60331
LeftLeg  0.380682 13.4216 -3.4185
LeftFoot  2.93431 0.787744 -6.42381
LeftToes  1.06245e-005 4.65869e-005 -8.65517e-006
899
root  14.6842 40.6445 10.1276 140.878 88.5191 143.391
RightUpLeg  2.48234 -11.494 -11.6401
RightLeg  5.76582 -9.8062 2.90945
RightFoot  -0.564272 -0.33635 3.58044
RightToes  0.000481921 0.542163 -0.142578
Spine  -1.83379 -0.62859 -3.14255
Spine1  13.611 -1.94969 4.75327
HEad  16.8317 2.07399 1.26567
LeftShoulder1  9.22375 -13.0241 -48.7203
LeftArm  -13.6633 21.7437 -23.6908
LeftForeArm  169.863 -47.3577 -168.972
LeftHand  -0.25398 0.0180481 5.50724
RightShoulder  5.07734 8.18559 37.4118
RightArm  4.36761 -14.9942 34.8668
RightForeArm  148.354 55.4651 163.731
RightHand  -1.17475 1.88063 -18.8363
LeftUpLeg  3.35312 7.93882 9.5997
LeftLeg  0.396523 13.0952 -3.39071
LeftFoot  2.97759 0.788339 -6.41775
LeftToes  1.06245e-005 4.65869e-005 -8.65517e-006
900
root  14.6788 40.6444 10.1518 148.473 88.1655 151.025
RightUpLeg  2.59544 -11.4919 -11.6335
RightLeg  5.82036 -10.1955 2.86644
RightFoot  -0.633834 -0.338328 3.61666
RightToes  0.000481921 0.542163 -0.142578
Spine  -1.64025 -0.587793 -3.25441
Spine1  13.358 -2.00323 5.11187
HEad  17.0535 1.95334 1.02123
LeftShoulder1  9.23238 -13.0639 -48.6485
LeftArm  -12.8335 22.5078 -23.039
LeftForeArm  169.358 -47.6945 -168.813
LeftHand  -0.25398 0.0180481 5.50724
RightShoulder  5.07561 8.15245 37.5168
RightArm  4.47553 -15.2603 34.8779
RightForeArm  148.058 55.4202 163.734
RightHand  -1.19904 1.89151 -19.1882
LeftUpLeg  3.29599 7.91188 9.59803
LeftLeg  0.368843 12.7283 -3.37142
LeftFoot  3.06011 0.788377 -6.38474
LeftToes  1.06245e-005 4.65869e-005 -8.65517e-006
901
root  14.6678 40.6443 10.1789 152.519 87.8139 155.121
RightUpLeg  2.6894 -11.5217 -11.6588
RightLeg  5.90273 -10.5162 2.84101
RightFoot  -0.691778 -0.337093 3.60342
RightToes  0.000481921 0.542163 -0.142578
Spine  -1.53661 -0.618051 -3.43133
Spine1  13.2862 -2.13255 5.46607
HEad  17.0104 1.95221 0.7919
LeftShoulder1  9.22339 -13.0712 -48.5793
LeftArm  -12.2471 22.643 -22.0042
LeftForeArm  168.501 -48.0935 -168.605
LeftHand  -0.25398 0.0180481 5.50724
RightShoulder  5.08275 8.19335 37.4292
RightArm  4.687 -15.3598 35.0766
RightForeArm  148.412 55.5357 163.696
RightHand  -1.2383 2.15268 -19.1469
LeftUpLeg  3.28496 7.87331 9.58075
LeftLeg  0.270384 12.3952 -3.37088
LeftFoot  3.17927 0.793671 -6.37798
LeftToes  1.06245e-005 4.65869e-005 -8.65517e-006
